<?xml version="1.0" encoding="us-ascii" standalone="no"?><svg xmlns="http://www.w3.org/2000/svg" xmlns:xlink="http://www.w3.org/1999/xlink" contentStyleType="text/css" height="474px" preserveAspectRatio="none" style="width:720px;height:474px;background:#FFFFFF;" version="1.1" viewBox="0 0 720 474" width="720px" zoomAndPan="magnify"><defs/><g><!--cluster Machine Virtuel--><g id="cluster_Machine Virtuel"><polygon fill="none" points="221,16,231,6,498,6,498,218,488,228,221,228,221,16" style="stroke:#181818;stroke-width:1.0;"/><line style="stroke:#181818;stroke-width:1.0;" x1="488" x2="498" y1="16" y2="6"/><line style="stroke:#181818;stroke-width:1.0;" x1="221" x2="488" y1="16" y2="16"/><line style="stroke:#181818;stroke-width:1.0;" x1="488" x2="488" y1="16" y2="228"/><text fill="#000000" font-family="sans-serif" font-size="14" font-style="italic" lengthAdjust="spacing" textLength="113" x="299" y="31.9951">&#171;Ubuntu 24.04&#187;</text><text fill="#000000" font-family="sans-serif" font-size="14" font-weight="bold" lengthAdjust="spacing" textLength="122" x="294.5" y="48.292">Machine Virtuel</text></g><!--cluster Postgres Container--><g id="cluster_Postgres Container"><polygon fill="none" points="245,80,255,70,474,70,474,194,464,204,245,204,245,80" style="stroke:#181818;stroke-width:1.0;"/><line style="stroke:#181818;stroke-width:1.0;" x1="464" x2="474" y1="80" y2="70"/><line style="stroke:#181818;stroke-width:1.0;" x1="245" x2="464" y1="80" y2="80"/><line style="stroke:#181818;stroke-width:1.0;" x1="464" x2="464" y1="80" y2="204"/><text fill="#000000" font-family="sans-serif" font-size="14" font-style="italic" lengthAdjust="spacing" textLength="68" x="321.5" y="95.9951">&#171;Docker&#187;</text><text fill="#000000" font-family="sans-serif" font-size="14" font-weight="bold" lengthAdjust="spacing" textLength="153" x="279" y="112.292">Postgres Container</text></g><!--cluster Machine Caisse 1--><g id="cluster_Machine Caisse 1"><polygon fill="none" points="16,349,26,339,229,339,229,447,219,457,16,457,16,349" style="stroke:#181818;stroke-width:1.0;"/><line style="stroke:#181818;stroke-width:1.0;" x1="219" x2="229" y1="349" y2="339"/><line style="stroke:#181818;stroke-width:1.0;" x1="16" x2="219" y1="349" y2="349"/><line style="stroke:#181818;stroke-width:1.0;" x1="219" x2="219" y1="349" y2="457"/><text fill="#000000" font-family="sans-serif" font-size="14" font-style="italic" lengthAdjust="spacing" textLength="113" x="62" y="364.9951">&#171;Ubuntu 24.04&#187;</text><text fill="#000000" font-family="sans-serif" font-size="14" font-weight="bold" lengthAdjust="spacing" textLength="137" x="50" y="381.292">Machine Caisse 1</text></g><!--cluster Machine Caisse 2--><g id="cluster_Machine Caisse 2"><polygon fill="none" points="253,349,263,339,466,339,466,447,456,457,253,457,253,349" style="stroke:#181818;stroke-width:1.0;"/><line style="stroke:#181818;stroke-width:1.0;" x1="456" x2="466" y1="349" y2="339"/><line style="stroke:#181818;stroke-width:1.0;" x1="253" x2="456" y1="349" y2="349"/><line style="stroke:#181818;stroke-width:1.0;" x1="456" x2="456" y1="349" y2="457"/><text fill="#000000" font-family="sans-serif" font-size="14" font-style="italic" lengthAdjust="spacing" textLength="113" x="299" y="364.9951">&#171;Ubuntu 24.04&#187;</text><text fill="#000000" font-family="sans-serif" font-size="14" font-weight="bold" lengthAdjust="spacing" textLength="137" x="287" y="381.292">Machine Caisse 2</text></g><!--cluster Machine Caisse 3--><g id="cluster_Machine Caisse 3"><polygon fill="none" points="490,349,500,339,703,339,703,447,693,457,490,457,490,349" style="stroke:#181818;stroke-width:1.0;"/><line style="stroke:#181818;stroke-width:1.0;" x1="693" x2="703" y1="349" y2="339"/><line style="stroke:#181818;stroke-width:1.0;" x1="490" x2="693" y1="349" y2="349"/><line style="stroke:#181818;stroke-width:1.0;" x1="693" x2="693" y1="349" y2="457"/><text fill="#000000" font-family="sans-serif" font-size="14" font-style="italic" lengthAdjust="spacing" textLength="113" x="536" y="364.9951">&#171;Ubuntu 24.04&#187;</text><text fill="#000000" font-family="sans-serif" font-size="14" font-weight="bold" lengthAdjust="spacing" textLength="137" x="524" y="381.292">Machine Caisse 3</text></g><!--entity db--><g id="elem_db"><path d="M273.5,136 C273.5,126 359,126 359,126 C359,126 444.5,126 444.5,136 L444.5,177.5938 C444.5,187.5938 359,187.5938 359,187.5938 C359,187.5938 273.5,187.5938 273.5,177.5938 L273.5,136 " fill="#F1F1F1" style="stroke:#181818;stroke-width:0.5;"/><path d="M273.5,136 C273.5,146 359,146 359,146 C359,146 444.5,146 444.5,136 " fill="none" style="stroke:#181818;stroke-width:0.5;"/><text fill="#000000" font-family="sans-serif" font-size="14" font-style="italic" lengthAdjust="spacing" textLength="70" x="324" y="162.9951">&#171;SQL DB&#187;</text><text fill="#000000" font-family="sans-serif" font-size="14" lengthAdjust="spacing" textLength="151" x="283.5" y="179.292">PostgreSQL Database</text></g><!--entity app1--><g id="elem_app1"><rect fill="#F1F1F1" height="46.2969" rx="2.5" ry="2.5" style="stroke:#181818;stroke-width:0.5;" width="115" x="97.5" y="395"/><rect fill="#F1F1F1" height="10" style="stroke:#181818;stroke-width:0.5;" width="15" x="192.5" y="400"/><rect fill="#F1F1F1" height="2" style="stroke:#181818;stroke-width:0.5;" width="4" x="190.5" y="402"/><rect fill="#F1F1F1" height="2" style="stroke:#181818;stroke-width:0.5;" width="4" x="190.5" y="406"/><text fill="#000000" font-family="sans-serif" font-size="14" lengthAdjust="spacing" textLength="75" x="112.5" y="427.9951">caisse-app</text></g><!--entity app2--><g id="elem_app2"><rect fill="#F1F1F1" height="46.2969" rx="2.5" ry="2.5" style="stroke:#181818;stroke-width:0.5;" width="115" x="301.5" y="395"/><rect fill="#F1F1F1" height="10" style="stroke:#181818;stroke-width:0.5;" width="15" x="396.5" y="400"/><rect fill="#F1F1F1" height="2" style="stroke:#181818;stroke-width:0.5;" width="4" x="394.5" y="402"/><rect fill="#F1F1F1" height="2" style="stroke:#181818;stroke-width:0.5;" width="4" x="394.5" y="406"/><text fill="#000000" font-family="sans-serif" font-size="14" lengthAdjust="spacing" textLength="75" x="316.5" y="427.9951">caisse-app</text></g><!--entity app3--><g id="elem_app3"><rect fill="#F1F1F1" height="46.2969" rx="2.5" ry="2.5" style="stroke:#181818;stroke-width:0.5;" width="115" x="506.5" y="395"/><rect fill="#F1F1F1" height="10" style="stroke:#181818;stroke-width:0.5;" width="15" x="601.5" y="400"/><rect fill="#F1F1F1" height="2" style="stroke:#181818;stroke-width:0.5;" width="4" x="599.5" y="402"/><rect fill="#F1F1F1" height="2" style="stroke:#181818;stroke-width:0.5;" width="4" x="599.5" y="406"/><text fill="#000000" font-family="sans-serif" font-size="14" lengthAdjust="spacing" textLength="75" x="521.5" y="427.9951">caisse-app</text></g><!--link db to app1--><g id="link_db_app1"><path codeLine="20" d="M335.2,188.22 C293.68,240.93 208.97,348.48 172.43,394.88 " fill="none" id="db-app1" style="stroke:#181818;stroke-width:1.0;"/><text fill="#000000" font-family="sans-serif" font-size="13" lengthAdjust="spacing" textLength="24" x="267" y="288.0669">TCP</text></g><!--link db to app2--><g id="link_db_app2"><path codeLine="21" d="M359,188.22 C359,240.93 359,348.48 359,394.88 " fill="none" id="db-app2" style="stroke:#181818;stroke-width:1.0;"/><text fill="#000000" font-family="sans-serif" font-size="13" lengthAdjust="spacing" textLength="24" x="360" y="288.0669">TCP</text></g><!--link db to app3--><g id="link_db_app3"><path codeLine="22" d="M382.92,188.22 C424.64,240.93 509.76,348.48 546.49,394.88 " fill="none" id="db-app3" style="stroke:#181818;stroke-width:1.0;"/><text fill="#000000" font-family="sans-serif" font-size="13" lengthAdjust="spacing" textLength="24" x="465" y="288.0669">TCP</text></g><!--SRC=[dOyz3u8m54LtViKBUuqK9aCOX54JZ1zxlw94RKbR9iD_jmKY64EClg5DR-uvUPMA2mYtX5qgAU1KQTk8MmXfUgIDj0tWPB5CiWmU0RYHNRjKnfwrC90hQOdZj0SAnQv2lwf-EB644ZCY-zq6YY7qJFTUEuOOu7G4sw0_sq2-xPUJoZXTDBiWK_TQII4jiAwAI5rxkRkYeJ9hnU7lKlnD6lyXZIVIW5D02FKVMC4XBoS9_aZYFda2]--></g></svg>