<?xml version="1.0" encoding="us-ascii" standalone="no"?><svg xmlns="http://www.w3.org/2000/svg" xmlns:xlink="http://www.w3.org/1999/xlink" contentStyleType="text/css" height="395px" preserveAspectRatio="none" style="width:501px;height:395px;background:#FFFFFF;" version="1.1" viewBox="0 0 501 395" width="501px" zoomAndPan="magnify"><defs/><g><text fill="#000000" font-family="sans-serif" font-size="14" font-weight="bold" lengthAdjust="spacing" textLength="457" x="21" y="27.9951">Diagramme de S&#233;quence FaireUnRetour(transactionID:int)</text><line style="stroke:#181818;stroke-width:0.5;stroke-dasharray:5.0,5.0;" x1="26" x2="26" y1="118.5938" y2="388.3906"/><line style="stroke:#181818;stroke-width:0.5;stroke-dasharray:5.0,5.0;" x1="159" x2="159" y1="118.5938" y2="388.3906"/><line style="stroke:#181818;stroke-width:0.5;stroke-dasharray:5.0,5.0;" x1="250" x2="250" y1="118.5938" y2="388.3906"/><line style="stroke:#181818;stroke-width:0.5;stroke-dasharray:5.0,5.0;" x1="409" x2="409" y1="118.5938" y2="388.3906"/><line style="stroke:#181818;stroke-width:0.5;stroke-dasharray:5.0,5.0;" x1="466" x2="466" y1="118.5938" y2="388.3906"/><text fill="#000000" font-family="sans-serif" font-size="14" lengthAdjust="spacing" textLength="36" x="5" y="115.292">Actor</text><ellipse cx="26" cy="50.7969" fill="#E2E2F0" rx="8" ry="8" style="stroke:#181818;stroke-width:0.5;"/><path d="M26,58.7969 L26,85.7969 M13,66.7969 L39,66.7969 M26,85.7969 L13,100.7969 M26,85.7969 L39,100.7969 " fill="none" style="stroke:#181818;stroke-width:0.5;"/><rect fill="#E2E2F0" height="30.2969" rx="2.5" ry="2.5" style="stroke:#181818;stroke-width:0.5;" width="68" x="125" y="87.2969"/><text fill="#000000" font-family="sans-serif" font-size="14" lengthAdjust="spacing" textLength="54" x="132" y="107.292">Caissier</text><rect fill="#E2E2F0" height="30.2969" rx="2.5" ry="2.5" style="stroke:#181818;stroke-width:0.5;" width="95" x="203" y="87.2969"/><text fill="#000000" font-family="sans-serif" font-size="14" lengthAdjust="spacing" textLength="81" x="210" y="107.292">Transaction</text><text fill="#000000" font-family="sans-serif" font-size="14" lengthAdjust="spacing" textLength="18" x="397" y="115.292">db</text><path d="M391,66.2969 C391,56.2969 409,56.2969 409,56.2969 C409,56.2969 427,56.2969 427,66.2969 L427,92.2969 C427,102.2969 409,102.2969 409,102.2969 C409,102.2969 391,102.2969 391,92.2969 L391,66.2969 " fill="#E2E2F0" style="stroke:#181818;stroke-width:1.5;"/><path d="M391,66.2969 C391,76.2969 409,76.2969 409,76.2969 C409,76.2969 427,76.2969 427,66.2969 " fill="none" style="stroke:#181818;stroke-width:1.5;"/><rect fill="#E2E2F0" height="30.2969" rx="2.5" ry="2.5" style="stroke:#181818;stroke-width:0.5;" width="58" x="437" y="87.2969"/><text fill="#000000" font-family="sans-serif" font-size="14" lengthAdjust="spacing" textLength="44" x="444" y="107.292">logger</text><polygon fill="#181818" points="147,145.7266,157,149.7266,147,153.7266,151,149.7266" style="stroke:#181818;stroke-width:1.0;"/><line style="stroke:#181818;stroke-width:1.0;" x1="26" x2="153" y1="149.7266" y2="149.7266"/><text fill="#000000" font-family="sans-serif" font-size="13" lengthAdjust="spacing" textLength="109" x="33" y="144.6606">FaireUnRetour(2)</text><polygon fill="#181818" points="397,174.8594,407,178.8594,397,182.8594,401,178.8594" style="stroke:#181818;stroke-width:1.0;"/><line style="stroke:#181818;stroke-width:1.0;" x1="159" x2="403" y1="178.8594" y2="178.8594"/><text fill="#000000" font-family="sans-serif" font-size="13" lengthAdjust="spacing" textLength="144" x="166" y="173.7935">GetTransactionByID(2)</text><polygon fill="#181818" points="170,203.9922,160,207.9922,170,211.9922,166,207.9922" style="stroke:#181818;stroke-width:1.0;"/><line style="stroke:#181818;stroke-width:1.0;stroke-dasharray:2.0,2.0;" x1="164" x2="408" y1="207.9922" y2="207.9922"/><text fill="#000000" font-family="sans-serif" font-size="13" lengthAdjust="spacing" textLength="115" x="176" y="202.9263">return transaction</text><polygon fill="#181818" points="397,258.125,407,262.125,397,266.125,401,262.125" style="stroke:#181818;stroke-width:1.0;"/><line style="stroke:#181818;stroke-width:1.0;" x1="159" x2="403" y1="262.125" y2="262.125"/><text fill="#000000" font-family="sans-serif" font-size="13" lengthAdjust="spacing" textLength="226" x="166" y="257.0591">EnregistrerTransaction(transaction)</text><polygon fill="#181818" points="397,312.2578,407,316.2578,397,320.2578,401,316.2578" style="stroke:#181818;stroke-width:1.0;"/><line style="stroke:#181818;stroke-width:1.0;" x1="159" x2="403" y1="316.2578" y2="316.2578"/><text fill="#000000" font-family="sans-serif" font-size="13" lengthAdjust="spacing" textLength="216" x="166" y="311.1919">SetTransactionToDejaRetourne(2)</text><polygon fill="#181818" points="454,366.3906,464,370.3906,454,374.3906,458,370.3906" style="stroke:#181818;stroke-width:1.0;"/><line style="stroke:#181818;stroke-width:1.0;" x1="159" x2="460" y1="370.3906" y2="370.3906"/><text fill="#000000" font-family="sans-serif" font-size="13" lengthAdjust="spacing" textLength="280" x="166" y="365.3247">Transaction(transaction, "Retour effectu&#233;e")</text><!--SRC=[TP31JiCm38RlUGfh9ohH2yS98G45j2iR3-0cRZ7gak6u4aXzeJt7Neo689OYaLEYp_zdEw_i2BeGj0qVHba7WeQn5zpl2MQqFHtVH_AMu15PwCK_auPHBbJGHxJAmM-QDNkjZ9cVGI2Vs-AE4T0SK9Gj7z0ht2F7o2I9s0NPdRK9gd6es6Aav77jZyqjCaFe- -mQ349z0nRMVwQzgenDnCtaYRJeSlUvQJA-hkjlBgIZU2WMDDCqdVCFNgZdg49IUCeFgPQ1xQBXBZJqXdakJwdrR_4m5_-Zl8HLZW1r7LaTJqTQLLy0]--></g></svg>