<?xml version="1.0" encoding="us-ascii" standalone="no"?><svg xmlns="http://www.w3.org/2000/svg" xmlns:xlink="http://www.w3.org/1999/xlink" contentStyleType="text/css" height="203px" preserveAspectRatio="none" style="width:352px;height:203px;background:#FFFFFF;" version="1.1" viewBox="0 0 352 203" width="352px" zoomAndPan="magnify"><defs/><g><text fill="#000000" font-family="sans-serif" font-size="14" font-weight="bold" lengthAdjust="spacing" textLength="303" x="18" y="27.9951">Diagramme de S&#233;quence FermerPOS()</text><line style="stroke:#181818;stroke-width:0.5;stroke-dasharray:5.0,5.0;" x1="26" x2="26" y1="118.5938" y2="196.8594"/><line style="stroke:#181818;stroke-width:0.5;stroke-dasharray:5.0,5.0;" x1="133" x2="133" y1="118.5938" y2="196.8594"/><line style="stroke:#181818;stroke-width:0.5;stroke-dasharray:5.0,5.0;" x1="317" x2="317" y1="118.5938" y2="196.8594"/><text fill="#000000" font-family="sans-serif" font-size="14" lengthAdjust="spacing" textLength="36" x="5" y="115.292">Actor</text><ellipse cx="26" cy="50.7969" fill="#E2E2F0" rx="8" ry="8" style="stroke:#181818;stroke-width:0.5;"/><path d="M26,58.7969 L26,85.7969 M13,66.7969 L39,66.7969 M26,85.7969 L13,100.7969 M26,85.7969 L39,100.7969 " fill="none" style="stroke:#181818;stroke-width:0.5;"/><rect fill="#E2E2F0" height="30.2969" rx="2.5" ry="2.5" style="stroke:#181818;stroke-width:0.5;" width="68" x="99" y="87.2969"/><text fill="#000000" font-family="sans-serif" font-size="14" lengthAdjust="spacing" textLength="54" x="106" y="107.292">Caissier</text><text fill="#000000" font-family="sans-serif" font-size="14" lengthAdjust="spacing" textLength="18" x="305" y="115.292">db</text><path d="M299,66.2969 C299,56.2969 317,56.2969 317,56.2969 C317,56.2969 335,56.2969 335,66.2969 L335,92.2969 C335,102.2969 317,102.2969 317,102.2969 C317,102.2969 299,102.2969 299,92.2969 L299,66.2969 " fill="#E2E2F0" style="stroke:#181818;stroke-width:1.5;"/><path d="M299,66.2969 C299,76.2969 317,76.2969 317,76.2969 C317,76.2969 335,76.2969 335,66.2969 " fill="none" style="stroke:#181818;stroke-width:1.5;"/><polygon fill="#181818" points="121,145.7266,131,149.7266,121,153.7266,125,149.7266" style="stroke:#181818;stroke-width:1.0;"/><line style="stroke:#181818;stroke-width:1.0;" x1="26" x2="127" y1="149.7266" y2="149.7266"/><text fill="#000000" font-family="sans-serif" font-size="13" lengthAdjust="spacing" textLength="83" x="33" y="144.6606">FermerPOS()</text><polygon fill="#181818" points="305,174.8594,315,178.8594,305,182.8594,309,178.8594" style="stroke:#181818;stroke-width:1.0;"/><line style="stroke:#181818;stroke-width:1.0;" x1="133" x2="311" y1="178.8594" y2="178.8594"/><text fill="#000000" font-family="sans-serif" font-size="13" lengthAdjust="spacing" textLength="160" x="140" y="173.7935">LibererCaisse("Caisse 1")</text><!--SRC=[LKqx2i904Etd54CQayB2ra8GnKfGo0bcTySua6IJsH6yakVmOcQDHNpDUxmFxow1yHQZkVW44siPZqADKjSnJb7zVeqFxZtZYRLZlLxgiW8WRr5nndwXAI71G6hYPQ3Uy42Iah3cn4CW8qU9SpMuto30QhbeOzFC_HO8rplqkFqxzzaCataMnyhwlU2oc1atHVK1]--></g></svg>