<?xml version="1.0" encoding="us-ascii" standalone="no"?><svg xmlns="http://www.w3.org/2000/svg" xmlns:xlink="http://www.w3.org/1999/xlink" contentStyleType="text/css" height="203px" preserveAspectRatio="none" style="width:355px;height:203px;background:#FFFFFF;" version="1.1" viewBox="0 0 355 203" width="355px" zoomAndPan="magnify"><defs/><g><text fill="#000000" font-family="sans-serif" font-size="14" font-weight="bold" lengthAdjust="spacing" textLength="327" x="10" y="27.9951">Diagramme de S&#233;quence TotalDeLACart()</text><line style="stroke:#181818;stroke-width:0.5;stroke-dasharray:5.0,5.0;" x1="103.5" x2="103.5" y1="118.5938" y2="196.8594"/><line style="stroke:#181818;stroke-width:0.5;stroke-dasharray:5.0,5.0;" x1="231.5" x2="231.5" y1="118.5938" y2="196.8594"/><text fill="#000000" font-family="sans-serif" font-size="14" lengthAdjust="spacing" textLength="36" x="82.5" y="115.292">Actor</text><ellipse cx="103.5" cy="50.7969" fill="#E2E2F0" rx="8" ry="8" style="stroke:#181818;stroke-width:0.5;"/><path d="M103.5,58.7969 L103.5,85.7969 M90.5,66.7969 L116.5,66.7969 M103.5,85.7969 L90.5,100.7969 M103.5,85.7969 L116.5,100.7969 " fill="none" style="stroke:#181818;stroke-width:0.5;"/><rect fill="#E2E2F0" height="30.2969" rx="2.5" ry="2.5" style="stroke:#181818;stroke-width:0.5;" width="68" x="197.5" y="87.2969"/><text fill="#000000" font-family="sans-serif" font-size="14" lengthAdjust="spacing" textLength="54" x="204.5" y="107.292">Caissier</text><polygon fill="#181818" points="219.5,145.7266,229.5,149.7266,219.5,153.7266,223.5,149.7266" style="stroke:#181818;stroke-width:1.0;"/><line style="stroke:#181818;stroke-width:1.0;" x1="103.5" x2="225.5" y1="149.7266" y2="149.7266"/><text fill="#000000" font-family="sans-serif" font-size="13" lengthAdjust="spacing" textLength="102" x="110.5" y="144.6606">TotalDeLACart()</text><polygon fill="#181818" points="114.5,174.8594,104.5,178.8594,114.5,182.8594,110.5,178.8594" style="stroke:#181818;stroke-width:1.0;"/><line style="stroke:#181818;stroke-width:1.0;stroke-dasharray:2.0,2.0;" x1="108.5" x2="230.5" y1="178.8594" y2="178.8594"/><text fill="#000000" font-family="sans-serif" font-size="13" lengthAdjust="spacing" textLength="104" x="120.5" y="173.7935">return total:float</text><!--SRC=[POv13e8m44NtSuhPeGikG8m9WQKxlS1lEs2JGh4T4g_aERoO82v8dDLFtdl9tBqJxc9K4v-aNeDmwz4d38FmWgxlrsEMqGhVeYAqSgaR93qSYM0r9jwktcra1asBvAsVC2ety3bxIIknL3We3BAihZE_mb6nJqBi-oq812xFRBdw-m1yAiilIQ9p6bbNeUf2X7u0]--></g></svg>