<?xml version="1.0" encoding="us-ascii" standalone="no"?><svg xmlns="http://www.w3.org/2000/svg" xmlns:xlink="http://www.w3.org/1999/xlink" contentStyleType="text/css" height="455px" preserveAspectRatio="none" style="width:413px;height:455px;background:#FFFFFF;" version="1.1" viewBox="0 0 413 455" width="413px" zoomAndPan="magnify"><defs/><g><text fill="#000000" font-family="sans-serif" font-size="14" font-weight="bold" lengthAdjust="spacing" textLength="169" x="115.25" y="22.9951">MDD du syst&#232;me POS</text><!--class Produit--><g id="elem_Produit"><rect codeLine="7" fill="#F1F1F1" height="115.7813" id="Produit" rx="2.5" ry="2.5" style="stroke:#181818;stroke-width:0.5;" width="116" x="290.5" y="188.2969"/><text fill="#000000" font-family="sans-serif" font-size="14" lengthAdjust="spacing" textLength="49" x="324" y="206.292">Produit</text><line style="stroke:#181818;stroke-width:0.5;" x1="291.5" x2="405.5" y1="214.5938" y2="214.5938"/><text fill="#000000" font-family="sans-serif" font-size="14" lengthAdjust="spacing" textLength="34" x="296.5" y="231.5889">id:int</text><text fill="#000000" font-family="sans-serif" font-size="14" lengthAdjust="spacing" textLength="75" x="296.5" y="247.8857">nom:string</text><text fill="#000000" font-family="sans-serif" font-size="14" lengthAdjust="spacing" textLength="58" x="296.5" y="264.1826">prix:float</text><text fill="#000000" font-family="sans-serif" font-size="14" lengthAdjust="spacing" textLength="104" x="296.5" y="280.4795">category:string</text><text fill="#000000" font-family="sans-serif" font-size="14" lengthAdjust="spacing" textLength="79" x="296.5" y="296.7764">quantite:int</text></g><!--class DBProxy--><g id="elem_DBProxy"><rect codeLine="14" fill="#F1F1F1" height="66.8906" id="DBProxy" rx="2.5" ry="2.5" style="stroke:#181818;stroke-width:0.5;" width="126" x="209.5" y="381.2969"/><text fill="#000000" font-family="sans-serif" font-size="14" lengthAdjust="spacing" textLength="58" x="243.5" y="399.292">DBProxy</text><line style="stroke:#181818;stroke-width:0.5;" x1="210.5" x2="334.5" y1="407.5938" y2="407.5938"/><text fill="#000000" font-family="sans-serif" font-size="14" lengthAdjust="spacing" textLength="114" x="215.5" y="424.5889">username:string</text><text fill="#000000" font-family="sans-serif" font-size="14" lengthAdjust="spacing" textLength="111" x="215.5" y="440.8857">password:string</text></g><!--class Transaction--><g id="elem_Transaction"><rect codeLine="18" fill="#F1F1F1" height="99.4844" id="Transaction" rx="2.5" ry="2.5" style="stroke:#181818;stroke-width:0.5;" width="115" x="83" y="196.7969"/><text fill="#000000" font-family="sans-serif" font-size="14" lengthAdjust="spacing" textLength="81" x="100" y="214.792">Transaction</text><line style="stroke:#181818;stroke-width:0.5;" x1="84" x2="197" y1="223.0938" y2="223.0938"/><text fill="#000000" font-family="sans-serif" font-size="14" lengthAdjust="spacing" textLength="64" x="89" y="240.0889">total:float</text><text fill="#000000" font-family="sans-serif" font-size="14" lengthAdjust="spacing" textLength="74" x="89" y="256.3857">type:string</text><text fill="#000000" font-family="sans-serif" font-size="14" lengthAdjust="spacing" textLength="103" x="89" y="272.6826">produitIDs:[]int</text><text fill="#000000" font-family="sans-serif" font-size="14" lengthAdjust="spacing" textLength="88" x="89" y="288.9795">caisse:string</text></g><!--class Logger--><g id="elem_Logger"><rect codeLine="24" fill="#F1F1F1" height="50.5938" id="Logger" rx="2.5" ry="2.5" style="stroke:#181818;stroke-width:0.5;" width="75" x="7" y="389.2969"/><text fill="#000000" font-family="sans-serif" font-size="14" lengthAdjust="spacing" textLength="48" x="20.5" y="407.292">Logger</text><line style="stroke:#181818;stroke-width:0.5;" x1="8" x2="81" y1="415.5938" y2="415.5938"/><text fill="#000000" font-family="sans-serif" font-size="14" lengthAdjust="spacing" textLength="63" x="13" y="432.5889">file:string</text></g><!--class Caissier--><g id="elem_Caissier"><rect codeLine="28" fill="#F1F1F1" height="66.8906" id="Caissier" rx="2.5" ry="2.5" style="stroke:#181818;stroke-width:0.5;" width="102" x="192.5" y="44.2969"/><text fill="#000000" font-family="sans-serif" font-size="14" lengthAdjust="spacing" textLength="54" x="216.5" y="62.292">Caissier</text><line style="stroke:#181818;stroke-width:0.5;" x1="193.5" x2="293.5" y1="70.5938" y2="70.5938"/><text fill="#000000" font-family="sans-serif" font-size="14" lengthAdjust="spacing" textLength="75" x="198.5" y="87.5889">nom:string</text><text fill="#000000" font-family="sans-serif" font-size="14" lengthAdjust="spacing" textLength="90" x="198.5" y="103.8857">cart:[]Produit</text></g><!--link Caissier to Transaction--><g id="link_Caissier_Transaction"><path codeLine="33" d="M223.15,111.6969 C208.14,135.9569 190.637,164.2546 173.727,191.5846 " fill="none" id="Caissier-to-Transaction" style="stroke:#181818;stroke-width:1.0;"/><polygon fill="#181818" points="170.57,196.6869,178.707,191.1381,173.2008,192.435,171.9039,186.9288,170.57,196.6869" style="stroke:#181818;stroke-width:1.0;"/><text fill="#000000" font-family="sans-serif" font-size="13" lengthAdjust="spacing" textLength="47" x="205.5" y="154.3638">fait des</text></g><!--link Caissier to Produit--><g id="link_Caissier_Produit"><path codeLine="34" d="M264.24,111.6969 C277.99,133.4869 293.1886,157.5923 309.2886,183.1123 " fill="none" id="Caissier-to-Produit" style="stroke:#181818;stroke-width:1.0;"/><polygon fill="#181818" points="312.49,188.1869,311.0709,178.4408,309.8222,183.9581,304.3049,182.7093,312.49,188.1869" style="stroke:#181818;stroke-width:1.0;"/><text fill="#000000" font-family="sans-serif" font-size="13" lengthAdjust="spacing" textLength="81" x="293.5" y="154.3638">consulte des</text></g><!--link Transaction to Produit--><g id="link_Transaction_Produit"><path codeLine="35" d="M198.16,246.2969 C226.9,246.2969 255.56,246.2969 284.36,246.2969 " fill="none" id="Transaction-to-Produit" style="stroke:#181818;stroke-width:1.0;"/><polygon fill="#181818" points="290.36,246.2969,281.36,242.2969,285.36,246.2969,281.36,250.2969,290.36,246.2969" style="stroke:#181818;stroke-width:1.0;"/><text fill="#000000" font-family="sans-serif" font-size="13" lengthAdjust="spacing" textLength="56" x="216.25" y="239.3638">g&#232;re des</text></g><!--link Transaction to Logger--><g id="link_Transaction_Logger"><path codeLine="36" d="M82.91,283.7469 C66.4,297.4069 50.46,314.4969 41.5,334.2969 C33.76,351.4069 34.0196,366.8731 36.9696,383.1431 " fill="none" id="Transaction-to-Logger" style="stroke:#181818;stroke-width:1.0;"/><polygon fill="#181818" points="38.04,389.0469,40.3702,379.4776,37.148,384.1271,32.4985,380.9049,38.04,389.0469" style="stroke:#181818;stroke-width:1.0;"/><text fill="#000000" font-family="sans-serif" font-size="13" lengthAdjust="spacing" textLength="110" x="42.5" y="347.3638">s'enregistre dans</text></g><!--link Transaction to DBProxy--><g id="link_Transaction_DBProxy"><path codeLine="37" d="M157.62,295.9269 C165.56,314.4269 176.21,334.9569 189.5,351.2969 C198.38,362.2169 204.8078,368.6011 216.0578,377.3211 " fill="none" id="Transaction-to-DBProxy" style="stroke:#181818;stroke-width:1.0;"/><polygon fill="#181818" points="220.8,380.9969,216.1372,372.3217,216.8481,377.9337,211.2361,378.6447,220.8,380.9969" style="stroke:#181818;stroke-width:1.0;"/><text fill="#000000" font-family="sans-serif" font-size="13" lengthAdjust="spacing" textLength="110" x="190.5" y="347.3638">s'enregistre dans</text></g><!--link Produit to DBProxy--><g id="link_Produit_DBProxy"><path codeLine="38" d="M329.12,304.4569 C323.34,319.8869 316.62,336.4269 309.5,351.2969 C304.76,361.1869 302.0327,366.4174 296.4527,375.8174 " fill="none" id="Produit-to-DBProxy" style="stroke:#181818;stroke-width:1.0;"/><polygon fill="#181818" points="293.39,380.9769,301.4237,375.2795,295.9423,376.6774,294.5445,371.1959,293.39,380.9769" style="stroke:#181818;stroke-width:1.0;"/><text fill="#000000" font-family="sans-serif" font-size="13" lengthAdjust="spacing" textLength="72" x="317.5" y="347.3638">provient de</text></g><!--SRC=[RP0nJWCn44Lxds8wgbp0HGhO1Wb49EWGXMLFDYDvxSGp2raXxfDxv6BC9hk91Ubi__U__yo60eAduYEQpNZkK3Ov62Ca4U6vQI3qm0FByT0Xh5vUZV7HCSEgvD2JmBS1e60fYHvIxYnBeTJgPLjeRzSnkr7nJh3DPRZAkzub_GLFrfyfjRdNtFsWeJrZIQx3Ys6h-bSkONwOBM_59NPUA2UrIHONvrzbs5R-S-77XktxnwckTyICV_EUSjjYqQWrnKgSr8VHGrZ6kUjflIkYkTDMHlv2BXRBkYHOM3jTN42kcELbeHPyJjn7mHDIEw-KXVPuA3S8HSu3ME0xJ0LRqeeAAlEFdBPz2vtRL9Wsqnr-4gQnlFa5]--></g></svg>